<svg width="27" height="24" viewBox="0 0 27 24" fill="none" xmlns="http://www.w3.org/2000/svg">
<path d="M13.5 11.8143C15.2902 11.8143 17.0071 11.192 18.273 10.0842C19.5388 8.97637 20.25 7.47385 20.25 5.90717C20.25 4.34049 19.5388 2.83798 18.273 1.73017C17.0071 0.622361 15.2902 0 13.5 0C11.7098 0 9.9929 0.622361 8.72703 1.73017C7.46116 2.83798 6.75 4.34049 6.75 5.90717C6.75 7.47385 7.46116 8.97637 8.72703 10.0842C9.9929 11.192 11.7098 11.8143 13.5 11.8143ZM18 5.90717C18 6.95163 17.5259 7.9533 16.682 8.69184C15.8381 9.43038 14.6935 9.84529 13.5 9.84529C12.3065 9.84529 11.1619 9.43038 10.318 8.69184C9.47411 7.9533 9 6.95163 9 5.90717C9 4.86272 9.47411 3.86104 10.318 3.1225C11.1619 2.38396 12.3065 1.96906 13.5 1.96906C14.6935 1.96906 15.8381 2.38396 16.682 3.1225C17.5259 3.86104 18 4.86272 18 5.90717ZM27 21.6596C27 23.6287 24.75 23.6287 24.75 23.6287H2.25C2.25 23.6287 0 23.6287 0 21.6596C0 19.6906 2.25 13.7834 13.5 13.7834C24.75 13.7834 27 19.6906 27 21.6596ZM24.75 21.6518C24.7477 21.1674 24.4035 19.7103 22.878 18.3752C21.411 17.0914 18.6502 15.7525 13.5 15.7525C8.3475 15.7525 5.589 17.0914 4.122 18.3752C2.5965 19.7103 2.2545 21.1674 2.25 21.6518H24.75Z" fill="white"/>
</svg>
